<svg width="251.0375px" height="116px" xmlns="http://www.w3.org/2000/svg" viewBox="124.48125 17 251.0375 116" style="background: rgba(0, 0, 0, 0);" preserveAspectRatio="xMidYMid"><defs><linearGradient id="editing-gradient-gradient" x1="0" x2="1" y1="0.5" y2="0.5" gradientUnits="objectBoundingBox"><stop offset="0" stop-color="#f0f"></stop><stop offset="1" stop-color="#00ffff"></stop></linearGradient></defs><g><g transform="translate(165.1850128173828, 96.06500053405762)"><path d="M8.25-29.13L8.25-29.13L8.25-29.13Q9.94-29.06 11.13-27.91L11.13-27.91L11.13-27.91Q12.31-26.75 12.38-25.06L12.38-25.06L12.38-3.44L12.38-3.44Q12 0.31 8.25 0.63L8.25 0.63L8.25 0.63Q6.50 0.63 5.22-0.53L5.22-0.53L5.22-0.53Q3.94-1.69 3.94-3.44L3.94-3.44L3.94-25.06L3.94-25.06Q4-26.81 5.25-27.97L5.25-27.97L5.25-27.97Q6.50-29.13 8.25-29.13ZM3-37.25L3-37.25L3-37.25Q3-39 4.50-40.25L4.50-40.25L4.50-40.25Q6-41.50 8.13-41.50L8.13-41.50L8.13-41.50Q10.25-41.50 11.75-40.25L11.75-40.25L11.75-40.25Q13.25-39 13.25-37.25L13.25-37.25L13.25-37.25Q13.25-35.44 11.75-34.19L11.75-34.19L11.75-34.19Q10.25-32.94 8.13-32.94L8.13-32.94L8.13-32.94Q6-32.94 4.50-34.19L4.50-34.19L4.50-34.19Q3-35.44 3-37.25ZM31.88-37L31.88-37L58.25-37L58.25-37Q60-36.94 61.16-35.69L61.16-35.69L61.16-35.69Q62.31-34.44 62.31-32.69L62.31-32.69L62.31-32.69Q62-28.94 58.25-28.63L58.25-28.63L34-28.63L34-28.63Q31.63-28.50 30.06-26.81L30.06-26.81L30.06-26.81Q28.50-25.13 27.78-22.97L27.78-22.97L27.78-22.97Q27.06-20.81 27.06-18.56L27.06-18.56L27.06-18.56Q27.06-16.31 27.78-14.16L27.78-14.16L27.78-14.16Q28.50-12 30.06-10.31L30.06-10.31L30.06-10.31Q31.63-8.63 34-8.50L34-8.50L53-8.50L53-8.50Q54.13-8.56 54.19-9.75L54.19-9.75L54.19-13.38L54.19-13.38Q54.13-14.63 53-14.63L53-14.63L37-14.63L37-14.63Q35.25-14.63 34.03-15.84L34.03-15.84L34.03-15.84Q32.81-17.06 32.81-18.81L32.81-18.81L32.81-18.81Q32.81-20.56 34-21.81L34-21.81L34-21.81Q35.25-23 37-23L37-23L58.38-23L58.38-23Q60.13-23 61.38-21.81L61.38-21.81L61.38-21.81Q62.50-20.63 62.56-18.94L62.56-18.94L62.56-18.81L62.56-4.19L62.56-4.19Q62.50-2.50 61.38-1.38L61.38-1.38L61.38-1.38Q60.19-0.19 58.50-0.13L58.50-0.13L31.88-0.13L31.88-0.13Q27.50-0.38 24.66-3.47L24.66-3.47L24.66-3.47Q21.81-6.56 20.59-10.50L20.59-10.50L20.59-10.50Q19.38-14.44 19.38-18.56L19.38-18.56L19.38-18.56Q19.38-22.69 20.63-26.63L20.63-26.63L20.63-26.63Q21.88-30.56 24.69-33.66L24.69-33.66L24.69-33.66Q27.50-36.75 31.88-37ZM101.25-0.13L83.25-0.13L83.25-0.13Q77.75-0.31 74.94-2.72L74.94-2.72L74.94-2.72Q72.13-5.13 70.88-8.16L70.88-8.16L70.88-8.16Q69.63-11.19 69.63-14.31L69.63-14.31L69.63-14.31Q69.63-17.56 70.84-20.59L70.84-20.59L70.84-20.59Q72.06-23.63 74.91-26.03L74.91-26.03L74.91-26.03Q77.75-28.44 82.13-28.50L82.13-28.50L102.38-28.50L102.38-28.50Q106.75-28.44 109.59-26.03L109.59-26.03L109.59-26.03Q112.44-23.63 113.66-20.59L113.66-20.59L113.66-20.59Q114.88-17.56 114.88-14.31L114.88-14.31L114.88-14.31Q114.88-11.19 113.63-8.16L113.63-8.16L113.63-8.16Q112.38-5.13 109.56-2.72L109.56-2.72L109.56-2.72Q106.75-0.31 101.25-0.13L101.25-0.13ZM102.63-20.13L81.88-20.13L81.88-20.13Q80.69-20.13 79.81-19.16L79.81-19.16L79.81-19.16Q78.94-18.19 78.53-16.91L78.53-16.91L78.53-16.91Q78.13-15.63 78.13-14.38L78.13-14.38L78.13-14.38Q78.13-13.06 78.53-11.78L78.53-11.78L78.53-11.78Q78.94-10.50 79.81-9.53L79.81-9.53L79.81-9.53Q80.69-8.56 81.88-8.50L81.88-8.50L102.63-8.50L102.63-8.50Q103.81-8.56 104.69-9.53L104.69-9.53L104.69-9.53Q105.56-10.50 105.97-11.78L105.97-11.78L105.97-11.78Q106.38-13.06 106.38-14.38L106.38-14.38L106.38-14.38Q106.38-15.63 105.97-16.91L105.97-16.91L105.97-16.91Q105.56-18.19 104.69-19.16L104.69-19.16L104.69-19.16Q103.81-20.13 102.63-20.13L102.63-20.13ZM153-0.13L135-0.13L135-0.13Q129.50-0.31 126.69-2.72L126.69-2.72L126.69-2.72Q123.88-5.13 122.63-8.16L122.63-8.16L122.63-8.16Q121.38-11.19 121.38-14.31L121.38-14.31L121.38-14.31Q121.38-17.56 122.59-20.59L122.59-20.59L122.59-20.59Q123.81-23.63 126.66-26.03L126.66-26.03L126.66-26.03Q129.50-28.44 133.88-28.50L133.88-28.50L154.13-28.50L154.13-28.50Q158.50-28.44 161.34-26.03L161.34-26.03L161.34-26.03Q164.19-23.63 165.41-20.59L165.41-20.59L165.41-20.59Q166.63-17.56 166.63-14.31L166.63-14.31L166.63-14.31Q166.63-11.19 165.38-8.16L165.38-8.16L165.38-8.16Q164.13-5.13 161.31-2.72L161.31-2.72L161.31-2.72Q158.50-0.31 153-0.13L153-0.13ZM154.38-20.13L133.63-20.13L133.63-20.13Q132.44-20.13 131.56-19.16L131.56-19.16L131.56-19.16Q130.69-18.19 130.28-16.91L130.28-16.91L130.28-16.91Q129.88-15.63 129.88-14.38L129.88-14.38L129.88-14.38Q129.88-13.06 130.28-11.78L130.28-11.78L130.28-11.78Q130.69-10.50 131.56-9.53L131.56-9.53L131.56-9.53Q132.44-8.56 133.63-8.50L133.63-8.50L154.38-8.50L154.38-8.50Q155.56-8.56 156.44-9.53L156.44-9.53L156.44-9.53Q157.31-10.50 157.72-11.78L157.72-11.78L157.72-11.78Q158.13-13.06 158.13-14.38L158.13-14.38L158.13-14.38Q158.13-15.63 157.72-16.91L157.72-16.91L157.72-16.91Q157.31-18.19 156.44-19.16L156.44-19.16L156.44-19.16Q155.56-20.13 154.38-20.13L154.38-20.13Z" fill="url(#editing-gradient-gradient)"></path></g></g><style>text {
  font-size: 64px;
  font-family: Arial Black;
  dominant-baseline: central;
  text-anchor: middle;
}</style></svg>