<svg width="597.5749999999999px" height="261.2px" xmlns="http://www.w3.org/2000/svg" viewBox="-48.787499999999966 -55.599999999999994 597.5749999999999 261.2" style="background: rgba(0, 0, 0, 0);" preserveAspectRatio="xMidYMid"><defs><linearGradient id="editing-gradient-gradient" x1="0" x2="1" y1="0.5" y2="0.5" gradientUnits="objectBoundingBox"><stop offset="0" stop-color="#ff00ff"></stop><stop offset="1" stop-color="#00ffff"></stop></linearGradient></defs><g><g transform="translate(37.9699821472168, 127.65499591827393)"><path d="M20.63-72.81L20.63-72.81L20.63-72.81Q24.84-72.66 27.81-69.77L27.81-69.77L27.81-69.77Q30.78-66.88 30.94-62.66L30.94-62.66L30.94-8.59L30.94-8.59Q30 0.78 20.63 1.56L20.63 1.56L20.63 1.56Q16.25 1.56 13.05-1.33L13.05-1.33L13.05-1.33Q9.84-4.22 9.84-8.59L9.84-8.59L9.84-62.66L9.84-62.66Q10-67.03 13.13-69.92L13.13-69.92L13.13-69.92Q16.25-72.81 20.63-72.81ZM7.50-93.13L7.50-93.13L7.50-93.13Q7.50-97.50 11.25-100.63L11.25-100.63L11.25-100.63Q15-103.75 20.31-103.75L20.31-103.75L20.31-103.75Q25.63-103.75 29.38-100.63L29.38-100.63L29.38-100.63Q33.13-97.50 33.13-93.13L33.13-93.13L33.13-93.13Q33.13-88.59 29.38-85.47L29.38-85.47L29.38-85.47Q25.63-82.34 20.31-82.34L20.31-82.34L20.31-82.34Q15-82.34 11.25-85.47L11.25-85.47L11.25-85.47Q7.50-88.59 7.50-93.13ZM79.69-92.50L79.69-92.50L145.63-92.50L145.63-92.50Q150-92.34 152.89-89.22L152.89-89.22L152.89-89.22Q155.78-86.09 155.78-81.72L155.78-81.72L155.78-81.72Q155-72.34 145.63-71.56L145.63-71.56L85-71.56L85-71.56Q79.06-71.25 75.16-67.03L75.16-67.03L75.16-67.03Q71.25-62.81 69.45-57.42L69.45-57.42L69.45-57.42Q67.66-52.03 67.66-46.41L67.66-46.41L67.66-46.41Q67.66-40.78 69.45-35.39L69.45-35.39L69.45-35.39Q71.25-30 75.16-25.78L75.16-25.78L75.16-25.78Q79.06-21.56 85-21.25L85-21.25L132.50-21.25L132.50-21.25Q135.31-21.41 135.47-24.38L135.47-24.38L135.47-33.44L135.47-33.44Q135.31-36.56 132.50-36.56L132.50-36.56L92.50-36.56L92.50-36.56Q88.13-36.56 85.08-39.61L85.08-39.61L85.08-39.61Q82.03-42.66 82.03-47.03L82.03-47.03L82.03-47.03Q82.03-51.41 85-54.53L85-54.53L85-54.53Q88.13-57.50 92.50-57.50L92.50-57.50L145.94-57.50L145.94-57.50Q150.31-57.50 153.44-54.53L153.44-54.53L153.44-54.53Q156.25-51.56 156.41-47.34L156.41-47.34L156.41-47.03L156.41-10.47L156.41-10.47Q156.25-6.25 153.44-3.44L153.44-3.44L153.44-3.44Q150.47-0.47 146.25-0.31L146.25-0.31L79.69-0.31L79.69-0.31Q68.75-0.94 61.64-8.67L61.64-8.67L61.64-8.67Q54.53-16.41 51.48-26.25L51.48-26.25L51.48-26.25Q48.44-36.09 48.44-46.41L48.44-46.41L48.44-46.41Q48.44-56.72 51.56-66.56L51.56-66.56L51.56-66.56Q54.69-76.41 61.72-84.14L61.72-84.14L61.72-84.14Q68.75-91.88 79.69-92.50ZM253.13-0.31L208.13-0.31L208.13-0.31Q194.38-0.78 187.34-6.80L187.34-6.80L187.34-6.80Q180.31-12.81 177.19-20.39L177.19-20.39L177.19-20.39Q174.06-27.97 174.06-35.78L174.06-35.78L174.06-35.78Q174.06-43.91 177.11-51.48L177.11-51.48L177.11-51.48Q180.16-59.06 187.27-65.08L187.27-65.08L187.27-65.08Q194.38-71.09 205.31-71.25L205.31-71.25L255.94-71.25L255.94-71.25Q266.88-71.09 273.98-65.08L273.98-65.08L273.98-65.08Q281.09-59.06 284.14-51.48L284.14-51.48L284.14-51.48Q287.19-43.91 287.19-35.78L287.19-35.78L287.19-35.78Q287.19-27.97 284.06-20.39L284.06-20.39L284.06-20.39Q280.94-12.81 273.91-6.80L273.91-6.80L273.91-6.80Q266.88-0.78 253.13-0.31L253.13-0.31ZM256.56-50.31L204.69-50.31L204.69-50.31Q201.72-50.31 199.53-47.89L199.53-47.89L199.53-47.89Q197.34-45.47 196.33-42.27L196.33-42.27L196.33-42.27Q195.31-39.06 195.31-35.94L195.31-35.94L195.31-35.94Q195.31-32.66 196.33-29.45L196.33-29.45L196.33-29.45Q197.34-26.25 199.53-23.83L199.53-23.83L199.53-23.83Q201.72-21.41 204.69-21.25L204.69-21.25L256.56-21.25L256.56-21.25Q259.53-21.41 261.72-23.83L261.72-23.83L261.72-23.83Q263.91-26.25 264.92-29.45L264.92-29.45L264.92-29.45Q265.94-32.66 265.94-35.94L265.94-35.94L265.94-35.94Q265.94-39.06 264.92-42.27L264.92-42.27L264.92-42.27Q263.91-45.47 261.72-47.89L261.72-47.89L261.72-47.89Q259.53-50.31 256.56-50.31L256.56-50.31ZM382.50-0.31L337.50-0.31L337.50-0.31Q323.75-0.78 316.72-6.80L316.72-6.80L316.72-6.80Q309.69-12.81 306.56-20.39L306.56-20.39L306.56-20.39Q303.44-27.97 303.44-35.78L303.44-35.78L303.44-35.78Q303.44-43.91 306.48-51.48L306.48-51.48L306.48-51.48Q309.53-59.06 316.64-65.08L316.64-65.08L316.64-65.08Q323.75-71.09 334.69-71.25L334.69-71.25L385.31-71.25L385.31-71.25Q396.25-71.09 403.36-65.08L403.36-65.08L403.36-65.08Q410.47-59.06 413.52-51.48L413.52-51.48L413.52-51.48Q416.56-43.91 416.56-35.78L416.56-35.78L416.56-35.78Q416.56-27.97 413.44-20.39L413.44-20.39L413.44-20.39Q410.31-12.81 403.28-6.80L403.28-6.80L403.28-6.80Q396.25-0.78 382.50-0.31L382.50-0.31ZM385.94-50.31L334.06-50.31L334.06-50.31Q331.09-50.31 328.91-47.89L328.91-47.89L328.91-47.89Q326.72-45.47 325.70-42.27L325.70-42.27L325.70-42.27Q324.69-39.06 324.69-35.94L324.69-35.94L324.69-35.94Q324.69-32.66 325.70-29.45L325.70-29.45L325.70-29.45Q326.72-26.25 328.91-23.83L328.91-23.83L328.91-23.83Q331.09-21.41 334.06-21.25L334.06-21.25L385.94-21.25L385.94-21.25Q388.91-21.41 391.09-23.83L391.09-23.83L391.09-23.83Q393.28-26.25 394.30-29.45L394.30-29.45L394.30-29.45Q395.31-32.66 395.31-35.94L395.31-35.94L395.31-35.94Q395.31-39.06 394.30-42.27L394.30-42.27L394.30-42.27Q393.28-45.47 391.09-47.89L391.09-47.89L391.09-47.89Q388.91-50.31 385.94-50.31L385.94-50.31Z" fill="url(#editing-gradient-gradient)"></path></g></g><style>text {
  font-size: 64px;
  font-family: Arial Black;
  dominant-baseline: central;
  text-anchor: middle;
}</style></svg>