<svg width="380.9749267578125px" height="170px" xmlns="http://www.w3.org/2000/svg" viewBox="59.512536621093744 -10 380.9749267578125 170" style="background: rgba(0, 0, 0, 0);" preserveAspectRatio="xMidYMid"><defs><linearGradient id="editing-gradient-gradient" x1="0" x2="1" y1="0.5" y2="0.5" gradientUnits="objectBoundingBox"><stop offset="0" stop-color="#ff00ff"></stop><stop offset="1" stop-color="#00ffff"></stop></linearGradient></defs><g><g transform="translate(117.47998285293579, 107.91000175476074)"><path d="M12.89-45.51L12.89-45.51L12.89-45.51Q15.53-45.41 17.38-43.60L17.38-43.60L17.38-43.60Q19.24-41.80 19.34-39.16L19.34-39.16L19.34-5.37L19.34-5.37Q18.75 0.49 12.89 0.98L12.89 0.98L12.89 0.98Q10.16 0.98 8.15-0.83L8.15-0.83L8.15-0.83Q6.15-2.64 6.15-5.37L6.15-5.37L6.15-39.16L6.15-39.16Q6.25-41.89 8.20-43.70L8.20-43.70L8.20-43.70Q10.16-45.51 12.89-45.51ZM4.69-58.20L4.69-58.20L4.69-58.20Q4.69-60.94 7.03-62.89L7.03-62.89L7.03-62.89Q9.38-64.84 12.70-64.84L12.70-64.84L12.70-64.84Q16.02-64.84 18.36-62.89L18.36-62.89L18.36-62.89Q20.70-60.94 20.70-58.20L20.70-58.20L20.70-58.20Q20.70-55.37 18.36-53.42L18.36-53.42L18.36-53.42Q16.02-51.46 12.70-51.46L12.70-51.46L12.70-51.46Q9.38-51.46 7.03-53.42L7.03-53.42L7.03-53.42Q4.69-55.37 4.69-58.20ZM49.80-57.81L49.80-57.81L91.02-57.81L91.02-57.81Q93.75-57.71 95.56-55.76L95.56-55.76L95.56-55.76Q97.36-53.81 97.36-51.07L97.36-51.07L97.36-51.07Q96.88-45.21 91.02-44.73L91.02-44.73L53.13-44.73L53.13-44.73Q49.41-44.53 46.97-41.89L46.97-41.89L46.97-41.89Q44.53-39.26 43.41-35.89L43.41-35.89L43.41-35.89Q42.29-32.52 42.29-29.00L42.29-29.00L42.29-29.00Q42.29-25.49 43.41-22.12L43.41-22.12L43.41-22.12Q44.53-18.75 46.97-16.11L46.97-16.11L46.97-16.11Q49.41-13.48 53.13-13.28L53.13-13.28L82.81-13.28L82.81-13.28Q84.57-13.38 84.67-15.23L84.67-15.23L84.67-20.90L84.67-20.90Q84.57-22.85 82.81-22.85L82.81-22.85L57.81-22.85L57.81-22.85Q55.08-22.85 53.17-24.76L53.17-24.76L53.17-24.76Q51.27-26.66 51.27-29.39L51.27-29.39L51.27-29.39Q51.27-32.13 53.13-34.08L53.13-34.08L53.13-34.08Q55.08-35.94 57.81-35.94L57.81-35.94L91.21-35.94L91.21-35.94Q93.95-35.94 95.90-34.08L95.90-34.08L95.90-34.08Q97.66-32.23 97.75-29.59L97.75-29.59L97.75-29.39L97.75-6.54L97.75-6.54Q97.66-3.91 95.90-2.15L95.90-2.15L95.90-2.15Q94.04-0.29 91.41-0.20L91.41-0.20L49.80-0.20L49.80-0.20Q42.97-0.59 38.53-5.42L38.53-5.42L38.53-5.42Q34.08-10.25 32.18-16.41L32.18-16.41L32.18-16.41Q30.27-22.56 30.27-29.00L30.27-29.00L30.27-29.00Q30.27-35.45 32.23-41.60L32.23-41.60L32.23-41.60Q34.18-47.75 38.57-52.59L38.57-52.59L38.57-52.59Q42.97-57.42 49.80-57.81ZM158.20-0.20L130.08-0.20L130.08-0.20Q121.48-0.49 117.09-4.25L117.09-4.25L117.09-4.25Q112.70-8.01 110.74-12.74L110.74-12.74L110.74-12.74Q108.79-17.48 108.79-22.36L108.79-22.36L108.79-22.36Q108.79-27.44 110.69-32.18L110.69-32.18L110.69-32.18Q112.60-36.91 117.04-40.67L117.04-40.67L117.04-40.67Q121.48-44.43 128.32-44.53L128.32-44.53L159.96-44.53L159.96-44.53Q166.80-44.43 171.24-40.67L171.24-40.67L171.24-40.67Q175.68-36.91 177.59-32.18L177.59-32.18L177.59-32.18Q179.49-27.44 179.49-22.36L179.49-22.36L179.49-22.36Q179.49-17.48 177.54-12.74L177.54-12.74L177.54-12.74Q175.59-8.01 171.19-4.25L171.19-4.25L171.19-4.25Q166.80-0.49 158.20-0.20L158.20-0.20ZM160.35-31.45L127.93-31.45L127.93-31.45Q126.07-31.45 124.71-29.93L124.71-29.93L124.71-29.93Q123.34-28.42 122.71-26.42L122.71-26.42L122.71-26.42Q122.07-24.41 122.07-22.46L122.07-22.46L122.07-22.46Q122.07-20.41 122.71-18.41L122.71-18.41L122.71-18.41Q123.34-16.41 124.71-14.89L124.71-14.89L124.71-14.89Q126.07-13.38 127.93-13.28L127.93-13.28L160.35-13.28L160.35-13.28Q162.21-13.38 163.57-14.89L163.57-14.89L163.57-14.89Q164.94-16.41 165.58-18.41L165.58-18.41L165.58-18.41Q166.21-20.41 166.21-22.46L166.21-22.46L166.21-22.46Q166.21-24.41 165.58-26.42L165.58-26.42L165.58-26.42Q164.94-28.42 163.57-29.93L163.57-29.93L163.57-29.93Q162.21-31.45 160.35-31.45L160.35-31.45ZM239.06-0.20L210.94-0.20L210.94-0.20Q202.34-0.49 197.95-4.25L197.95-4.25L197.95-4.25Q193.55-8.01 191.60-12.74L191.60-12.74L191.60-12.74Q189.65-17.48 189.65-22.36L189.65-22.36L189.65-22.36Q189.65-27.44 191.55-32.18L191.55-32.18L191.55-32.18Q193.46-36.91 197.90-40.67L197.90-40.67L197.90-40.67Q202.34-44.43 209.18-44.53L209.18-44.53L240.82-44.53L240.82-44.53Q247.66-44.43 252.10-40.67L252.10-40.67L252.10-40.67Q256.54-36.91 258.45-32.18L258.45-32.18L258.45-32.18Q260.35-27.44 260.35-22.36L260.35-22.36L260.35-22.36Q260.35-17.48 258.40-12.74L258.40-12.74L258.40-12.74Q256.45-8.01 252.05-4.25L252.05-4.25L252.05-4.25Q247.66-0.49 239.06-0.20L239.06-0.20ZM241.21-31.45L208.79-31.45L208.79-31.45Q206.93-31.45 205.57-29.93L205.57-29.93L205.57-29.93Q204.20-28.42 203.56-26.42L203.56-26.42L203.56-26.42Q202.93-24.41 202.93-22.46L202.93-22.46L202.93-22.46Q202.93-20.41 203.56-18.41L203.56-18.41L203.56-18.41Q204.20-16.41 205.57-14.89L205.57-14.89L205.57-14.89Q206.93-13.38 208.79-13.28L208.79-13.28L241.21-13.28L241.21-13.28Q243.07-13.38 244.43-14.89L244.43-14.89L244.43-14.89Q245.80-16.41 246.44-18.41L246.44-18.41L246.44-18.41Q247.07-20.41 247.07-22.46L247.07-22.46L247.07-22.46Q247.07-24.41 246.44-26.42L246.44-26.42L246.44-26.42Q245.80-28.42 244.43-29.93L244.43-29.93L244.43-29.93Q243.07-31.45 241.21-31.45L241.21-31.45Z" fill="url(#editing-gradient-gradient)"></path></g></g><style>text {
  font-size: 64px;
  font-family: Arial Black;
  dominant-baseline: central;
  text-anchor: middle;
}</style></svg>